<svg xmlns="http://www.w3.org/2000/svg" viewBox="0 0 691.07 370.05"><defs><style>.cls-1{fill:#100c1c;}.cls-2{fill:#fff;}</style></defs><g id="Livello_2" data-name="Livello 2"><g id="Livello_1-2" data-name="Livello 1"><path class="cls-1" d="M185,0h0c102.19,0,185,82.84,185,185h0c0,102.19-82.84,185-185,185h0C82.84,370.05,0,287.21,0,185H0C0,82.84,82.84,0,185,0Z"/><path class="cls-2" d="M125.25,96.62l-6.91-4.28a10.06,10.06,0,0,0-4.24-1.42c-1.42,0-3.11.73-4.79,1.21h-.48c-1.16,0-1.85.69-2.11,2.16,0,1.16-1,2.33-1.64,3.54-.48.69-1.21,1.17-1.43,1.9-2.16,3.54-2.85,7.86-5.49,10.93l-.21.22c-1.69,5-4.75,9.07-7.39,13.35-.22.69-8.81,17.32-9.72,16.37,0,.21-.52.47-.52.73,0,1.17.26,2.38-.43,3.29-1.43,2.37-1.69,5-2.89,7.6a7.37,7.37,0,0,0-1,2.16l-1.64,1.9c-.47,1.64,2.16,1.17,1.64,2.85-.21.74.52,2.16-1.42,2.16a22.55,22.55,0,0,0-1.17,3.54c-.21.95-.21,4.76-.47,5.49-1,2.38-1.69,5-2.59,7.08-.74,1.95-1,4.32-2.86,5.49-.25,0-.25.48-.25.48,1.42,1.42-.26,2.59-.26,3.8a3.33,3.33,0,0,1-2.34,3.11c-.26,0-.26.69-.26.95,1.43.91.48,2.12.26,3.07l-1.94,7.34c0,.26-.22.26-.48.52l-.69-1.47c-.21,0-.47,0-.47.26,0,1.42.26,2.85.26,4.28a18.94,18.94,0,0,1-.26,3.8c0,.69,0,2.37-1.69.95a3,3,0,0,0-.69.47c-.47,1.9-2.37,3.59-1.9,5.92a2.81,2.81,0,0,1-.22,1.9,2.23,2.23,0,0,1-1.2.95c-.48,0-.7-.69-1-1.16v-1.9L53.24,204c0-1.39-.22-2.86-.22-4.24,0-2.85.22-5.7.22-8.55,0-1.69,0-6.44.25-11.88H54.7l-.26-1.69a49,49,0,0,1,.26-6.17v-.26c.48-1.86,0-4-.51-6.4a1.73,1.73,0,0,0-.44.95c0-3.32.22-6.39.22-7.6.22-6.18,1.21-12.14.73-18.32-.26-2.59,1.9-15.16-.26-16.63-.25,0-.25,0-.47-.21a30.83,30.83,0,0,1,.22-4.5c.51-5.48,1.94-3.11,2.16-8.59a58.2,58.2,0,0,1,1.9-9,3.7,3.7,0,0,1,1.68-2.16c1.64-1.42,1.64-1.9-.26-3.8a23.61,23.61,0,0,0-8.77-5.44c-5.48-2.42-11-3.37-16.63-4.8-6-1.38-8.81,1.43-8.55,5.49s0,8.08,0,11.88c-.26,3.58-.74,7.13-.74,10.93,0,6.65.48,6.17.74,12.83.21,4.06.69,7.82,1.16,11.66a18.71,18.71,0,0,0-.95,2.59l1.64,58.93a2.34,2.34,0,0,1,.48,1.21v.21c.26,5.23.26,10.46.73,15.69.26,2.85,0,5.7,0,8.55,0,3.07-.73,6.65,2.86,8.55.21,0,.21.74.21,1s-.43.48-.69.48c-1.68,0-1.9.21-1.43,1.64a5.05,5.05,0,0,0,1.43,2.42,3.9,3.9,0,0,1,1.21,3.54c0,.22-.26,1-.52,1-1.86,0-1.42,1.64-1.42,2.64a13.71,13.71,0,0,0,.73,2.33l1.43,16.42a4.32,4.32,0,0,0,.47,1.68c2.64,4.28,4.75,8.77,8.77,11.62a3.19,3.19,0,0,1,1.69,1.43c1.2,1.9,3.06,2.37,5,2.37a64.74,64.74,0,0,0,7.08-.47c.52,0,1.43-.48,1.43-.74,0-1.9,1.94-2.85,2.16-4.71a5.77,5.77,0,0,1,1.21-2.16c2.59-2.37,3.75-5.7,4.71-9,.47-2.12.47-4.54,1.46-6.4a21.26,21.26,0,0,0,1.65-6.43,11.46,11.46,0,0,1,.73-2.86c.91-5,1.9-9.76,3.07-14.73a50.22,50.22,0,0,1,1.21-5.44,28.41,28.41,0,0,0,1.16-4.54l2.16-10.93c.44-1.64.44-3.58,1.17-5a143.25,143.25,0,0,0,5.44-15.73l3.85-14c.69-1.9.9-3.8,2.33-5.44a4.58,4.58,0,0,0,1-1.94L92,167l2.37-5.48c.74-1.9.74-4.28,2.38-5.92.21-.26.21-1,.47-1.43.48-1.21.22-2.89,2.12-2.89a.48.48,0,0,0,.47-.48c.74-1.85,9.51-19.44,10.24-21.34l1.43-4.27,1.42-2.42a12.42,12.42,0,0,1,1-2.38,4.66,4.66,0,0,0,1-1.38c1.9-1.21,2.37-3.11,3.54-4.8l3.58-6.61,3.11-3.37a11.73,11.73,0,0,0,3.33-5C127.15,98.52,126.42,97.36,125.25,96.62ZM78,174.34c0,.21-.52.69-.74.69-1.21,0-1.68,1-2.11,1.9a5.4,5.4,0,0,0-.52,1.94c-.48,4.5-3.33,8-4,12.36a1.13,1.13,0,0,1-.47.91c-.48-3.07,5-19.23,8.33-24.93ZM37.12,218.53c-.52,1.17-1.21,2.38-.52,3.54.26.26-.21,1-.47,1s-.91,0-.91-.26c-.95-1.69-2.16-3.33-1.42-5.45l.69,2.34c0-4.71.21-8.77.21-12.57.26-.26.26-.26.52-.26v3.8c.22,1.9.22,4.06,1.38,5.7A2.31,2.31,0,0,1,37.12,218.53ZM82,158.87a5.71,5.71,0,0,0-1,3.8c0,.26-.22.48-.48,1-2.12-2.16-1.68-4.54-.69-7.17a16.11,16.11,0,0,0,1.17,2.16l1.68-4.76h2.12ZM35,239.44a18.22,18.22,0,0,1-1.16-8.08c0-.47.47-1,.69-1.42.21.47.73.95.73,1.42l.48,8.08Zm27.3-22.33c0-.74.26-1.21.26-1.91-.26-.95,0-2.16-.26-3.06a4.46,4.46,0,0,1,.48-3.8C64.16,210.45,64.16,215,62.26,217.11ZM95.57,130.4A2.63,2.63,0,0,1,94.36,132c-.26,0-8.77,16-8.77,16l10-19.53A2.93,2.93,0,0,1,95.57,130.4ZM70.13,199.52a.83.83,0,0,1-.69.26c-.26,0-.48-.47-.48-.47l2.12-4.8c0-.21.47-.21.73-.21,0,.21.22.47.22.69ZM66.58,215.2c-1.68-1.9-1.46-3.32,1-6C67.28,211.19,67,213,66.58,215.2ZM34.27,201.9l-1,5.44C31.85,203.32,32.11,202.63,34.27,201.9Zm32.31-1.43a3.17,3.17,0,0,1-.73,3.81C64.9,202.85,65.12,202.37,66.58,200.47ZM35.44,227.78a2.54,2.54,0,0,0-.74-.22l1.43-1.9a2.43,2.43,0,0,0,1,.47ZM54.7,171.49l-1.21,1.9v-3.07a.63.63,0,0,1,.26.43,1.1,1.1,0,0,0,1,.48ZM36.6,239l-.47-2.63a1,1,0,0,1,.73-.22,10.59,10.59,0,0,0,.26,2.85ZM31.16,224c0-.26-.48-.48-.48-.74s.26-.73.26-.95c.22.22.48.48.7.48A1.82,1.82,0,0,1,31.16,224Zm1.9-12.62h.48a10.59,10.59,0,0,0,.26,2.85h-.26ZM76,167a.81.81,0,0,0,.52-.26v.48a.91.91,0,0,1-.52.26Zm113.84,37.5a104.88,104.88,0,0,0-17.33-.69c-1.42.22-1.9-.26-1.9-1.43a11.38,11.38,0,0,0,.22-2.59c-.22,0-.48-.26-.69-.26A32.67,32.67,0,0,1,169,203.8c-.26-.26-.26-.26-.48-.26,0-.22-.26-.43,0-.69,1.21-5.92,3.33-11.62,3.8-17.8.26-2.85.48-5.7,1-8.34a23.66,23.66,0,0,1,.7-5.48c.73-3.07,1.68-6.4,2.63-9.51.22-.43.48-1.16.22-1.16-2.12-1.69-.48-3.59.26-5A57.83,57.83,0,0,0,180.11,143c0-.21.26-.69.26-.95.95-3.32,1.9-6.65,3.11-9.76,1-2.81.69-5.92,2.6-8.51a1.09,1.09,0,0,0,.21-1.21c-.47-3.07-1.64-6-5.44-7.13-1.9-.73-3.8-1.42-5.7-2.37a8.73,8.73,0,0,0-4.28-.69,4.17,4.17,0,0,1-4-1.21,6.13,6.13,0,0,0-6.44-1.9c-.73,0-2.11-.26-2.37-.74-.48-1.38-1.69-1.64-2.85-1.86a6.87,6.87,0,0,1-2.16-1.21c-1.64-1.42-2.12-1.42-3.76,0a2.67,2.67,0,0,0-1.21,2.38c.26,2.85-1.21,5.49-2.38,8.08-1.42,2.63-3.06,5.44-4.27,8.08l-5.71,12.61-5.7,13c-2.16,5-4.49,9.76-6.44,14.73-1.16,2.85-1.9,5.7-2.85,8.81-.9,3.54-1.64,7.09-3.75,10.41a9.8,9.8,0,0,0-1.95,6.18l-.47,2.16c-.91,4.28-3.33,8.55-3.07,13.31a3.85,3.85,0,0,1-.48,1.16l-1.68,5.49a2.56,2.56,0,0,1-2.59,2.37l-11.41,3.33a9.48,9.48,0,0,1-6.65-.22l-1.9-.73c-2.85-.73-5.44,1.21-5,3.59a6.22,6.22,0,0,0,2.42,4.49c5.7,4.28,10.41,9,17.58,11.4a2.17,2.17,0,0,1,1.64,2.64l-3.33,16.16a63.44,63.44,0,0,1-1.9,9.24c-1.9,5.7-2.85,11.66-4.27,17.37-.48,1.9-1.21,3.54-3.81,4-1.2.22-1.42,1-1.42,1.91a11.45,11.45,0,0,0,1.68,7.38c.22.22.22.95.7.95.21.22.73,0,1.16-.26.48,0,1.21,0,1.21-.21.48-1,1.17-1,2.16-.74,1.86.26,3.54.74,3.54,2.85a1.67,1.67,0,0,0,1.17.95,14.77,14.77,0,0,0,4.54-.73c1-.22,1.9.73,3.11-.47a10.67,10.67,0,0,1,3.54-2.12c3.8-1.69,5.7-4.06,6.18-7.39a12.32,12.32,0,0,0,.47-5.92,20.63,20.63,0,0,1-.47-5.48,64.87,64.87,0,0,1,.73-7.35,69.73,69.73,0,0,1,1.43-7.13c.69-2.37.69-4.75,1.64-6.86,1.64-4.8,2.63-9.55,4.06-14.3,0-.44-.26-1.43-.48-1.43-1.21-.22-.73.74-.73,1.21v.69l-1.21.74c0-.22-.43-.74-.22-.95.95-2.38,1.43-4.76,2.16-7.13,1-3.11,3.07-4,5.71-5,1.85-.52,3.54-1.21,5.22-1.69,3.76-1.16,7.35-2.37,11.36-2.63,2,0,2.16,0,2.16,1.68v1.43l-.69,13.31c0,.21.22.47.22.73v4.75c0,.43-.22,1.17,0,1.64,1,1.9.47,3.81.26,5.71a44.13,44.13,0,0,0,0,8.29l.91,5.23.73,4.06a8.66,8.66,0,0,0,.22,2.37,20.1,20.1,0,0,0,.26,3.81c.73,4.06,1.42,7.86,1,12.09-.48,2.64.69,5.49,1.42,8.08,0,.48.48.73,1,1,.26,0,.74-.51.95-.73l3.33-3.07a42.19,42.19,0,0,1,5.7-3.11l1.69-1.16c0,.43.21.43,0,.69,0,.47-.26.69-.52,1.16.73,0,1.47,0,1.68-.21a5.07,5.07,0,0,0,1.17-1.9c.26-.74.47-1.65,1.94-1.65.22,0,.69-.51.95-1,.69-.43,1.17-1.42,1.9-1.9a2.27,2.27,0,0,0,1.39-2.85c-.48-2.38-2.12-4.71-1.17-7.09a2.41,2.41,0,0,0-.48-1.21,15.81,15.81,0,0,1-.47-3.32,7.84,7.84,0,0,1-.22-2.38c-1.21-3.58-1.9-7.13,0-10.67.22-.26,0-.47,0-.73-.73.73-1.9,1.16-2.37,1.68a13.27,13.27,0,0,0-.74,2.81,3.26,3.26,0,0,0-.95.26c.69-5.7,1.9-11.41,1.21-17.11l-2.37,5.7c-.48-2.85-1.21-5,1.16-6.91.69-.47.95-1.64,1.21-2.33l1.17-2.64c1.42-2.11,1.68-3.06,1.21-6.17l-1,3.8a4.81,4.81,0,0,1-1.95,2.59,43.47,43.47,0,0,1,.26-5.92v-8.34c.26-.9.48-1.85,1.69-2.11a118.36,118.36,0,0,1,12.35-3.8c3.29-.95,4.5-3.59,6.87-5.23a53.29,53.29,0,0,1,4.06-3.59c2.12-1.16,3.29-2.85,4.71-4.71C195.84,205,192.73,205,189.88,204.49ZM157.3,174.55a84.85,84.85,0,0,0-1.16,10.5,51.15,51.15,0,0,1-1.43,10.67l-1.42,6.18V206a12.12,12.12,0,0,0-1.9-2.85c-.26-.26-.95,0-1.43,0,0,.21-1,.91.22,1.17.26,0,.47.95.26,1.2a2.84,2.84,0,0,1-1.91.91l-16.84,2c-.48-1.47.21-2.86.69-4.06.47-1,.69-1.91,1.16-2.64,1.69-2.85,1.21-6.18,1.69-9.24.21-1.65.21-3.33,2.37-4.5a1,1,0,0,0,.7-.73c.73-4.06,2.63-7.82,4.32-11.62.21-.52.47-1,.21-1.47-1-1.9,0-3.07,1.17-4.24a12.58,12.58,0,0,0,1.42-2.37c.48-.74.48-1.95,1.9-1.95.26.26.74-.69.74-1.16l1.42-3.07,2.38-5.7,3.33-6.44h.47c-.69,10.72-3.06,20.91-3.54,31.58,3.54-2.59,3.76-6.39,4.71-9.72h.73C157.3,172.18,157.56,173.39,157.3,174.55Zm-3.54,87c0,.25-.47.47-.95.47,0,0-.47-.22-.47-.47a3.08,3.08,0,0,1-.22-1.43l-.73-11.62c0-4.28-.26-8.55-.48-12.83h-.26c0-2.85.26-5.7.26-8.77a5.2,5.2,0,0,1,.22-1.69c0-.26.51-.47.73-.47s.74.21.74.47a10.17,10.17,0,0,1,.21,2.38c0,5.23-.21,10.2,0,15.21,0,5.22.69,10.45.95,15.46A16.44,16.44,0,0,1,153.76,261.52Zm-49.89,2.63a9.86,9.86,0,0,0-.26,1.17c-.22,2.63-1.86,5.27-1,8.08.47,1.42-.44,2.16-2.86,3.11l.48-1.69a27.3,27.3,0,0,0,1.21-10.89,4.44,4.44,0,0,1,.73-1.68l2.12-5.92a2,2,0,0,0,.74.22A21.21,21.21,0,0,1,103.87,264.15Zm18-28.73c-.26,1.17-2.11,1.9-1,3.54.69.7-.26,2.38-.47,3.55-.26.26,0,.73-.26,1-.22.47-.91.73-1.38,1.21-.26-.48-.74-.95-.74-1.43.26-2.16.48-4.28.95-6.39a.56.56,0,0,1,.48-.52l3.11-4A23.68,23.68,0,0,0,121.92,235.42Zm42.3,5.92c-.48.48-.26,1.17-.26,1.69a21.11,21.11,0,0,1-.48,4c-1.64-4,.26-13,3.37-15.89C165.38,234.47,166.38,238.23,164.22,241.34ZM123.35,196.2a5.27,5.27,0,0,1,1.21-5,2.71,2.71,0,0,0,1.16-2.85c-.21-1.47.48-1.95,3.12-2.64A41.15,41.15,0,0,1,123.35,196.2Zm-5.7,61.56c-1.43-2.64-.48-5,4-8.56C122.66,253.22,118.86,254.91,117.65,257.76Zm-1.9,12.09a5.64,5.64,0,0,0-1,4.28c.21.26-.48.69-.7.95s-.73-.26-.95-.48l-1.47-3.8a9.33,9.33,0,0,1,1.69-2.16c.47-.47,1.43-.47,2.12-.69C115.49,268.64,116,269.38,115.75,269.85Zm-8.3-25.92h-.73a5.51,5.51,0,0,0-.26-1.9c-2.12,1.43-2.12,3.59-3.07,5.27l1.21-4.53a8.47,8.47,0,0,1,.69-2.16,2.87,2.87,0,0,0-.69-.44,3.53,3.53,0,0,1,.91-2.41,12.63,12.63,0,0,0-.22,2.85l2.64-1.65Zm29-64.84,2.81-4.06a.46.46,0,0,1,.73-.22c.22,0,.48.48.48.48a20.82,20.82,0,0,1-2.38,3.58C138.08,179.09,137.13,179.09,136.44,179.09Zm-14.52,24c0-1.69,0-2,3.11-4.8C124.56,200.26,124.56,202.16,121.92,203.11Zm14.52-24c0,1.64-1.47,4.49-2.9,6A8.41,8.41,0,0,1,136.44,179.09ZM115,257.24c.26,1.68.26,1.68-.91,3.58C113.15,258.66,113.15,258.66,115,257.24Zm17.37-70.33a.79.79,0,0,1,.69.26,23.46,23.46,0,0,1-.95,3.32h-.69C132.12,189.28,131,187.9,132.38,186.91Zm-3.33-8.77a.79.79,0,0,0,.69.26l-.9,2.59c-.52,0-.74-.26-1.21-.26Zm-9,54.17a.32.32,0,0,1,.48,0,13,13,0,0,1-.48,2.59c-.21,0-.47-.21-.69-.21A1.69,1.69,0,0,1,120,232.31Zm9.72-35.16-.69-.69,1.43-2,1,.74Zm-15.42,9.24,1.64-3.28C116,204.49,116.22,206,114.32,206.39ZM138.77,171l.74.48a15.59,15.59,0,0,1-1.91,1.9.81.81,0,0,1-.47-.22A13.4,13.4,0,0,0,138.77,171Zm30.67-26.61a1,1,0,0,1,.74.22,9.3,9.3,0,0,0-1,2.16h-.69A16.35,16.35,0,0,1,169.44,144.4ZM103.13,250.63h-.47a3.17,3.17,0,0,1,.73-3.11C103.39,248.47,103.13,249.64,103.13,250.63Zm52.53-20.69c-.69-1.69-.69-1.69,0-4.76ZM113.84,243l.7-1c.26,0,.73.26.73.48l-1,1.42C114.1,243.46,113.84,243.24,113.84,243Zm51.33,9.24-.48-.47.69-1.17c.26,0,.48.21.74.43Zm-34-79.83a.79.79,0,0,1,.69-.74c0-.21.48.26.48.26l-.95,1.21C131.21,172.7,131,172.44,131.21,172.44Zm3.76,3.11h.73l-.73,1.64h-.43A6.44,6.44,0,0,0,135,175.55Zm10.93,33.69-.69-.69c.21,0,.47-.21.69-.21s.52.21.73.21C146.42,208.81,146.42,209,145.9,209.24ZM107,246.78c0,.26-.26.52-.74,1v-1a.48.48,0,0,1,.48-.43S107,246.57,107,246.78Zm6.17-38.7c0-.26-.26-.26-.47-.48l1.42-.95A5.38,5.38,0,0,1,113.15,208.08Zm-7.38,44a.91.91,0,0,0-.48-.25v-.74a.79.79,0,0,1,.48-.22c0,.22.21.22.21.48A1,1,0,0,1,105.77,252.05Zm8.55-45.66c-.22,0-.22.26-.22.26v-.26ZM296.54,261.3a88.49,88.49,0,0,1-11.15.47c-3.32,0-6.91-.47-10.24-.25-6.17.25-12.57.73-18.75,1.2-3.8.22-7.86.7-11.66,1.21a6.93,6.93,0,0,1-2.12.22.83.83,0,0,0-.26.73h3.12l-2.38,1.65c-.26,0,0,.69,0,1a39.8,39.8,0,0,0-5,.95,1.1,1.1,0,0,1-.69-.69c-1.21-2.86-1.21-3.11-4.54-2.86a19.12,19.12,0,0,1-5.23.44h-3.32c-.22-5.66-.22-11.15-.69-16.85-.26-3.33-1-6.44.47-9.29v-.69c-.26-1.17-.47-2.59.95-3.07a13.61,13.61,0,0,1-1.68-3.37v-.69c-.69-2.85-.22-5.44,0-8.08.26-1.42-.69-3.06.73-3.8,0-.26.22-.26.48-.47,1.16-.95.47-2.64.47-4l.48-3.59.69-5.7a19.26,19.26,0,0,1-1.64,2.38,2.09,2.09,0,0,1-.74-1.43c.48-4,1.9-7.6.95-12.14-.21-.69.74-2.37,1.21-2.37,1.43-.22,3.54-.22,3.54-1.17a16,16,0,0,1,.26-3.54,102.31,102.31,0,0,1,1.9-11.88c1.65-6.18,8.08-29,9.25-35.43,1.21-5.22,3.58-12.14,4.54-17.36a48.21,48.21,0,0,1,2.59-8.3,5.62,5.62,0,0,1,1.9-2.11c1.42-1.21-3.8-3.37-5.23-5.23a20.41,20.41,0,0,0-6.65-5.49c-4.28-2.37-8.77-3.58-13.31-5-4.75-1.38-7.34,1.21-7.82,5a93.09,93.09,0,0,1-1.68,11.19c-.48,3.28-1.43,6.65-1.9,10.2-.69,6.17-4.75,32.09-5.23,38.49-.47,4-.47,8.08-.69,11.88,0,.69-.26,1.64-.26,2.37.26,0,.48.26.73.26a19.18,19.18,0,0,1,.7-2.85,13.84,13.84,0,0,0,1.21,2.59c0,.26.69.26.69.26a36.4,36.4,0,0,1,.26,5.23c0,.22-.48.47-.74.47-3.33.48-3.33.48-3.8,3.76,0,2,.26,3.8-.22,5.49a44.13,44.13,0,0,0-.95,16.85c0,.73.22,1.68-.26,2.16-.95,1.42-.69,3.06-.69,5,0,2.85-.26,5.92-.26,9,.26,3.28-.69,6.61,1.21,10.19a1.17,1.17,0,0,1,0,1.21c-1.9,1.43-1,3.54-1,5.66,0,3.11,0,6.22-.26,9.76,0,6.92-.21,12.36-.21,16.9l-11.41,1.42a11.59,11.59,0,0,0-6.65,2.38s-.95,11.14,1.17,17.8a2.73,2.73,0,0,1,2.16.69,26.13,26.13,0,0,1,2.85-1.9.86.86,0,0,1,.69-.22c2.63-1.17,5.23-1.17,7.86-1.17,1.17,0,2.59-1.21,3.8,0,.22,0,.22.22.48.22,1.16,1,2.59.26,4,0,1.21,0,2.37-.22,3.58-.22,1.9,0,3.8-.26,5.7-.26a19,19,0,0,1-2.85-1.16,1.94,1.94,0,0,1,1.43-.74c3.8-.47,7.82.48,11.62-1.16.95-.26,2.63.21,2.85.69.48,1.21.95,1.21,1.9,1.21a17.09,17.09,0,0,1,3.59-.52c3.8,0,7.82-.48,11.62,0,6.65.52,13.09-.48,19.48-.22,5.23,0,10,1.17,15.21,1.17,2.85.26,5.7.73,8.55,1.21a4,4,0,0,1,2.38,1.43c1.42,1.16,2.16,1.16,3.58-.48a15.39,15.39,0,0,0,3.8-6.87c1.43-4.53,1.43-8.81,1.9-13.09C303.45,263.2,300.34,261.08,296.54,261.3Zm30.89-144.46a26.51,26.51,0,0,0-10.2-2.38c-3.8-.26-7.39,0-10.93,0a3.21,3.21,0,0,0-1.42.22c-2.38,1.9-5.23,1.9-8.56.73a6.13,6.13,0,0,0-2.16-.26l-11.88,2.9c-1.64.47-3.07,1-5.23-.74-1.16-1.21-3.54-.47-3.32.74.26,1.64-.69,2.81-.69,4.49.21,2.85-1,5.23-1.69,7.86L269,138.91c-.48,2.9-1,6-1.65,9.08-1.42,6.65-3.32,13.3-4.06,20.39a78.35,78.35,0,0,1-.95,7.86,73.65,73.65,0,0,0-1.64,13L259,206.39l-.69,18.53c0,2.64-.48,4.8-2.38,6-1.21,1-1.43,1.9-.26,3.58,1,1.43,1.21,2.38,0,3.07-.47.47-.47,1,.26,1.42l1.17,1a3.36,3.36,0,0,1,1.9,3.32l.95,6.18a27.34,27.34,0,0,0,2.37-4.75,4,4,0,0,1,2.16-2.64c.22,1.21,0,2.16.95,3.59s2.38,1.9,3.55,2.59,1.9.52,2.37,0a26.53,26.53,0,0,1,2.85-2.33l10-6.7a33.11,33.11,0,0,0,3.59-2.33,57.37,57.37,0,0,0,5-3.37,27.08,27.08,0,0,0,2.85-2.12,21.94,21.94,0,0,1,5.7-4.75,7.83,7.83,0,0,0,4.06-5.7c.22-1.9.95-2.85,2.59-3.07,1.9-.26,2.85-1.68,3.8-3.59l-1.9-.73c-5.22-1.38-10.45-2.33-15.42-1.64a23.78,23.78,0,0,0-10,3.54c2.12-.69,4.28-.91,6.4-1.9h.47l.26-.22h.95l.22-.26h3.11v-.21h.69V213H297v.48h.26v.26H297v.47l-1.64.74-.26.21h-.47v.22H294l-.26.26h-.22l-.26.22h-.47l-.22.26H292v.21h-.73l-.22.26h-.47l-.26.26h-.22l-.26.22h-.47l-.22.25h-.47l-.26.22H288l-.21.26h-.48l-.26.22h-.21l-.26.21h-.69v.26h-.48l-.26.22h-.21l-.26.26h-.48l-.21.21h-.48v.26H283v.22h-.48V220h-.47v.26h-.26l-.22.21h-.26v.26h-.21l-.26.22h-.22v.21h-.48v.26h-.25v.22h-.48v.26h-.22l-.25.21h-.48v.26h-.69v.22h-1.43v.26h-.47c-.26,0-.74-.48-.95-.74a1.65,1.65,0,0,1,.21-.95h.26v-.21h.48v-.22h.21l.26-.26h.22v-.21h.47V220h.48v-.26H278v-.22h.74v-.26H279a4.12,4.12,0,0,0,2.85-1.38l2.63-2.42a.86.86,0,0,0-.73.26l-13,7.13-1.68.73.73-4.06c0-3.32,1.64-6.44,0-10.24,0-.21.22-.21,0-.43v-4.53a7.64,7.64,0,0,1,.69-3.12,7,7,0,0,0,1-4,12.87,12.87,0,0,1,.48-2.85l1.42-4.76a1.8,1.8,0,0,1,.48-.95c3.11,2.38,1.21,4.28.73,5.92,1,.74,1.17,0,1.43-.69.47-2.38,2.11-3.07,4.27-3.07a11,11,0,0,0,6.18-1.94l3.33-1.38c2.37-1.21,5-2.16,5.92-5.23.26-.95,1-1.47,1.21-2.16l.69-1.17c.95-.47.95-1.21.73-2.16s0-1.16.69-1.42c1.9-.48,2.38-2.12,3.33-3.8a28.25,28.25,0,0,0-21.12-2.85l.95-3.59,1.64-4.75c1-3.07,1.42-6.14,2.85-8.77a40,40,0,0,0,2.16-5.49l2.85-8.08a5.67,5.67,0,0,1,3.54-2.85l6.18-1.42c2.89-.48,6-.69,8.81-1.43,4.28-.91,8.3-2.12,12.36-3.33a7.7,7.7,0,0,0,1.16-.47,6.24,6.24,0,0,0-1.64-.69c1.43-1,2.85-1.21,2.38-3.33,0-.47,1.16-.69,1.16-1.21.52-2.11,2.16-2.59,3.59-3.54.48-.22.69-.69,1.43-1.17ZM264,199.52v1.9h-.26v6.66c0,.47.26.95,0,1.16v.26l-.22.22V210h-.26v.47h-.21v.22h-.26v.26l-.22-.26h-.26v-.22h-.21V209h.21V207.6h.26v-1.42h.22v-1.43l.26-.26v-1.86h-.26v-.73l-.22-.26V201h.22v-.48h.26v-.21l.21-.26h.26v-.22h.22v-.26Zm11.88-34.9c-.48,0-.95.69-1.21,1.16-.48.22-.48.74-.95.95s-1,0-1.64,0c.21-.73,0-1.68.21-1.9a5.08,5.08,0,0,0,2.85-3.11c0-.43.74-.21,1,.26a1.93,1.93,0,0,1,.26,1.17C276.84,163.88,276.58,164.36,275.89,164.62ZM273,215.9c-.48.73-.48,1,.21,1.46l.74,1.39c.47-2.85.95-5.23,1.16-8.08a2.28,2.28,0,0,0-1.64,2.16C273.25,214,273.51,215.2,273,215.9Zm-6.92-35.38v.95l-.21.25v1.65l-.26.21v1.9h-.22v2h-.26v.69a.47.47,0,0,1-.47.47c-.22-.21-.69-.69-.69-1h.21V186h.26v-1.38h.22v-1.47H265v-1.17l.21-.22v-1h.26v-.47h.48Zm-39.91,25v.22a.23.23,0,0,1,.26-.22h-.26c.95-1.68.73-3.84.47-6.17a8.35,8.35,0,0,0-1,5.7C225.73,205.23,226,205.23,226.21,205.48Zm-5,57.24c-1.21-1.9-1-3.54-.73-5.48C222.67,259.4,221.72,260.82,221.24,262.72ZM306,115.63c1.9-.95,2.85-.95,6.18-.69C310.79,116.84,308.68,115.89,306,115.63ZM224.09,286c-1.9-.69-4.53-.69-5.7,0-.26,0-.26.22-.26.47C220,287,221.93,286.48,224.09,286Zm51.06-81.73c-1.16.47-1.64,1.42-1.42,3.32C274.46,206.39,275.41,205.7,275.15,204.28Zm15,14c-.47,1.95-1.42,1.95-2.63,1.43Zm-5.22,6,.47.69L284,226.13c-.26,0-.26-.21-.48-.47ZM270.66,220a.75.75,0,0,0,.22.47l1.21-1.21a.91.91,0,0,0-.26-.47C271.14,218.75,270.4,219,270.66,220Zm-.47-50.85v.73h-.26v.48h-.22v.43h-.26c0-.21-.21-.21-.47-.43l.26-.26v-.47h.21v-.48h.26v-.26h.22v.26Zm-61.31,61h-.25v-.21h-.22v-.22h-.26V229h.26v-.22h.22V229h.25v.25h.22v.22C209.1,229.72,208.88,229.94,208.88,230.15ZM264.7,192.4l-.69-1.17V191h.21v-.48l.74.95C265,191.66,264.7,191.92,264.7,192.4Zm10.24,5.91c0,.48-.26,1-.26,1.47h.26c.21-.26.21-.73.47-1.21C275.15,198.57,275.15,198.31,274.94,198.31Zm-84.59,76.08v-.26h.22v-.48H191v.74Zm87.44-105.75a.8.8,0,0,0-.48.21c0-.21-.26-.47,0-.69,0-.26.22-.26.48-.26Zm0-1c0-.47.21-1,.21-1.42a.9.9,0,0,0,.48.26Zm8.77,56.08.26.26v.43l-.48-.43Zm-61,23.76s.21,0,.21.26c0-.26.26-.26.26-.48h-.26A.21.21,0,0,0,225.52,247.52ZM413.44,116.1l-2.6-2.8c-2.85-2.42-4.75-5.49-8.33-7.39-1.43-.74-2.59-.48-4-.48-1.17,0-1.64.74-1.9,1.69,0,.21-.69.47-.95.69-.22.47-.69,1-.69,1.43.47,1.42-.26,2.37-1,3.58-1.64,3.28-1.38,3.07-4,0a.25.25,0,0,1-.26-.26c-.22-1.21-.69-1.42-1.64-.47-.48.47-1,0-1.17-.74-.26-1.64-1.69-3.07-3.11-2.85-8.77.74-16.16,4.54-23.29,8.81-2.85,1.69-5.7,3.55-8.33,5.45-4,2.89-8.3,5.7-12.32,8.81-2.16,1.64-4.75,2.85-6.69,5-3.8,3.76-8.3,6.87-12.57,10.41a31.59,31.59,0,0,0-4.06,3.59,72.56,72.56,0,0,0-4.5,6.87c-1.64,2.63-2.85,5.22-1.16,8.33l.47,1.43a22.72,22.72,0,0,0,5,9.72,48.94,48.94,0,0,1,4.28,5,9.34,9.34,0,0,0,8.08,4,4.32,4.32,0,0,1,1.9.26c3.32,1.42,6.91,1.42,10.19,1.68,5.49.69,11,.91,16.42,1.38,3.11.26,6,1.47,9,1.69,3.58.26,6.91,1.43,10.45,1.17h.48c.47.47.95,1,.95,1.21a16.56,16.56,0,0,1-1.21,2.85l-.69,2.59c-.26,1.47-.26,3.11-1,4.32-1.42,3.54-3.32,7.08-5,10.67l-2.9,6.65-1.9,5.23a39.24,39.24,0,0,0-2.81,4.28c-3.58,7.6-12.61,17.36-11.66,25-2.12,2.59-2.38,7.34-3.8,10.67-.22.47-.22,1.16-.48,1.42a7,7,0,0,1-2.16.95c-.21,0-.69-.95-1.16-1.64a1.76,1.76,0,0,1-.48-1c0,.26,0,.26-.26.47L341,268.43c-.47-.48-.95-1.21-1.43-1.43-2.37-.95-2.59-2.85-2.85-4.75a60.77,60.77,0,0,1-.21-6.18c-.26-.47-.26-1.16-.74-1.68-1.16-1.64-1.42-2.34-.47-3.76.47-.52.47-.74,0-1.21a2,2,0,0,1-.69-1.43c.21-2.37,1.9-4.53,1.64-7.12,0-.26.26-.7.26-1l.95-3.33c.21-1.17-.26-2.85.47-3.8,2.12-4.28,3.55-9.25,6.87-13.09a2.25,2.25,0,0,0,.48-1.17c-1.43-1.9,0-2.85,1-4,.47-.73,1.21-1.47.73-2.37-1.68,1.16-1.68,1.16-3.37.43,1.21-.91,1.69-1.9,0-3.07a23.43,23.43,0,0,1-2.85.95v-.95c1.69-2.85,1.43-2.85,1.9-7.13,0-.73-.21-2.11,1.43-2.37a2.58,2.58,0,0,0,1.21-1.21l4.75-8.3a8.39,8.39,0,0,0-3.54.74c-4.06,1.64-6.92,4.71-9.77,7.82a7.31,7.31,0,0,1-1.42,1.42c-2.38,2.16-4.75,4.28-6.44,7.35a23.34,23.34,0,0,1-2.59,4.06c-1.9,1.9-1.64,4.49-2.38,6.65a5.31,5.31,0,0,0,1.69-2.37c.47-2.12,2.11-3.81,3.28-5.71.26-.47.74-.95,1.43-.47.26.21.73,1.21.47,1.68a6.33,6.33,0,0,1-1.64,2.59c-.47.48-.73.74-.26,1.43a3,3,0,0,1-.69,3.8,3.63,3.63,0,0,0-1,2.38,4.49,4.49,0,0,1-2.38,3.8,3.58,3.58,0,0,0-2.11,3.33c-.48,2.85-.74,5.7-1,8.77a.86.86,0,0,1,.26.47c1.69-1.9,1.21-4.49,2.38-6.39,0,2.63.95,5,.47,7.6a.88.88,0,0,1,.74-.26l-.48,1c0-.25-.26-.51-.26-.73-1.16,1.43-2.11,3.07-3.58,5.23v-2.85a18.83,18.83,0,0,0-.95,3.32c-.48,2.16-1.17,4.28.47,6.66A1.6,1.6,0,0,1,321,253a11.88,11.88,0,0,1-1.21,8.56c-1.16,1.9-.95,4.06-.47,6.43.26,2.16.95,4.28-1,5.92-.48.73-.95,1.47.26,2.16a5.72,5.72,0,0,0,3.8,2.16c1.21,0,2.37.91,3.58,1.64.95.48.48,1.69.69,2.38a3.19,3.19,0,0,0,.74,2.11c2.33,2.16,4.71,4.32,8.55,4.32a14.14,14.14,0,0,1,4,.91c.22,0,.69.48.69.48-.21,1.21.48,1,.74.73.95-1.21,1.64-1.42,3.06-.73.52.26,1-.22,1.47-.22a6.37,6.37,0,0,1,1.9-.47c2.12-.26,3.54-.95,4-2.86a5.53,5.53,0,0,1,1.9-2.85,32.35,32.35,0,0,0,3.33-4.27c.47-.95,0-1.43-1.43-1.43-1,.26-1.21-.26-1.21-.95l.74-1.64c1.42-1.69,2.37-3.11,4.53-4.32a17.23,17.23,0,0,0,6.4-8.77c.47-.73.47-1.43,1.16-1.9l4.54-4c.47-.52.47-1,.95-1.42,8.08-9.55,4-7.39,6.65-11.88a58.91,58.91,0,0,1,3.33-5,18.68,18.68,0,0,1,1.68-2.37c1.43-1.64,3.07-2.85,4-4.49,1.9-3.59,3.33-6.92,5.7-10a1.24,1.24,0,0,0,.26-1.9,2.69,2.69,0,0,1-.52-2.59,39.29,39.29,0,0,0,1.95-5c1.16-3.58,2.59-7.17,3.54-10.71a7.27,7.27,0,0,0-1.17-5.7c-1.9-2.38-1.21-5.49-3.11-7.82-3.32-4.06,1.21-6.91-3.58-9l-2.85-1c-2.81-.47-5.92-1.16-8.77-1.38-1.9,0-4.28-1.21-5.92.48,0,0-.48,0-.48-.26-.47-1-1.21-.69-1.9-.69a29.66,29.66,0,0,1-4.32,0l-18.27-1.69c-6.18-.69-12.1-3.11-18.32-3.32a6.9,6.9,0,0,1-2.11-.22c-1.65-.26-1.91-.73-1-1.94a26.52,26.52,0,0,1,3.33-5.23c1.17-1.43,2.12-3.28,3.8-4.49,3.8-2.86,7.35-6.18,11.41-8.82,2.63-1.64,5.48-3.06,8.29-4.75,4.32-2.59,9.07-4.75,13.57-7.13,1.68-.69,3.8-1.16,5.7-1.85A40.28,40.28,0,0,1,379.7,134l6.43-1.43c.95,0,1.43.22,1.43,1.17v1.68c-.22,1.69-.95,3.33.48,5.23.21.21,0,.73,0,1-1,1.68.95,3.33,0,5-.26,0,0,.47.21.73.95,2.59,2.38,5.44,2.85,8.08.48,3.33,2.64,5,5.27,6.39,1.64.74,2.85.95,4.24-.21.26-.48,1.21-.48,1.9-.69,3.84-.74,3.84-.95,2.63-4.8s-2.16-7.82-.95-11.88c.48-.91.26-2.12.26-3.33v-1.16A77.77,77.77,0,0,0,407.3,132c.95-3.58,4.24-6.17,4.24-10.23,0-.48.47-.69.73-1.17.48-.48,1-.69,1.17-1.17C414.39,118.05,414.39,117.57,413.44,116.1Zm-74.35,91a2.78,2.78,0,0,1,1.43-.26c0,.47.21.95,0,1.21l-1.91,2.59c-.21,0-.47-.22-.69-.22C337.92,209.24,337.92,207.82,339.09,207.13ZM365,262.72l-2.6,2.16c0-.25-.21-.25-.47-.51.73-.95,1.21-1.86,1.9-2.6.22-.25.95-.25,1.43-.47C365.23,261.77,365.23,262.51,365,262.72ZM324.83,251.8a2.07,2.07,0,0,1-.21-1h-.74a16.82,16.82,0,0,0,.48-3.54h.73a11.42,11.42,0,0,1-.26,3.07c.26.47.48.69.48,1.17A.76.76,0,0,0,324.83,251.8Zm-1.42,2.37c-1.17-1.68-.22-2.37.47-3.33C324.14,252.05,324.36,253,323.41,254.17Zm-1.9-101c-.26,0-.48-.26-.74-.26l1-1.9A1.45,1.45,0,0,1,321.51,153.21Zm14.73,56.51a.91.91,0,0,0,.47.26,6,6,0,0,1-1.64,1.68l-.47-.47Zm-14,53.7v2.16C320.77,264.63,320.77,264.63,322.24,263.42Zm1.9-18.75-.73,2.11C322.72,245.62,322.72,244.88,324.14,244.67Zm-5.48-86.75-.26-.21,1.42-1.91c.26,0,.26.22.48.48Zm0-4.23.69-.74c.26,0,.26,0,.47.26-.21.22-.21.69-.47,1.17a1,1,0,0,0-.69.26C318.66,154.16,318.4,153.9,318.66,153.69ZM333.39,214c-.26-.26-.48-.26-.26-.52a.75.75,0,0,0,.26-.48c.21,0,.21.26.47.26Zm-13.09,61,.26.26-1.69.69A5.64,5.64,0,0,1,320.3,275.08ZM341,204.75a.76.76,0,0,1,.48.26c0,.22-.26.22-.26.47-.22,0-.48,0-.48-.25A.75.75,0,0,0,341,204.75Zm158-67-11.88-11.67c-2.11-2.11-4.49-2.59-6.87-3.06-1.42,0-1.9.47-1.9,1.9l-.95,4c-1.42,4.76-4.06,8.82-4.06,14.3v.48L469,158.4l-5,19.74-3.33,15a3.39,3.39,0,0,1-.47,1.38c-2.38,2.85-5.23,4.54-9.29,4.06-.69-.26-1.43.22-2.38.22-2.59.26-5,2.37-8.08-.22-.21-.26-.95,0-1.42,0a20.48,20.48,0,0,1-3.54.74c-1.21,0-3.12,1.16-4.07-.52-.47-.95,0-2.85.26-4.28l2.85-11.62,4.28-15c1.43-4,3.07-7.82,4.75-11.88A47.49,47.49,0,0,1,450,143a7.65,7.65,0,0,1,2.37-2.37,2.43,2.43,0,0,0,1.21-2.85,31.2,31.2,0,0,0-2.16-4.75c-4.75-6-10.19-10.24-16.85-11.88-1.42-.48-2.37-.48-3.11.69a34,34,0,0,0-5.22,10.45l-1.17,5c-1.9,5-3.8,10.24-5.49,15.42-.95,3.11-1.64,6.44-2.37,9.77s-1.17,6.91-2.12,10.24a168.17,168.17,0,0,0-5.23,25.4,71,71,0,0,1-1.21,7.38,55.56,55.56,0,0,0-1.16,9,105.59,105.59,0,0,1-.95,12.1c-.26,1.9-.95,3.8-.74,5.7.48,3.33,0,6.44-.21,9.51-.26,2.63-.26,5.22-.74,7.6-.47,1.64-1.42,3.07-.47,5,.26.52-.22,1.42-.48,1.94a5.18,5.18,0,0,0,0,3.76,21.15,21.15,0,0,1,0,4.06c-.21,1.43-.95,2.59-.95,4-.47,5.23-1,10.45-1.16,15.72a7.24,7.24,0,0,0,.69,2.85c1.42,2.12,5.22,3.29,7.13,1.9l4.53-3.58a1.59,1.59,0,0,0,.22-.95,6.57,6.57,0,0,1,1.9-4.28l4.27-4c2.38-1.94,1.43-5.48,3.12-7.64.47-.69.21-2.12.47-3.07a7.31,7.31,0,0,1,0-2.38c.69-5-.47-10.45,1-15.42a12.35,12.35,0,0,0,0-2.85,48.29,48.29,0,0,0,.22-5.49l.73-6.65.95-7.13c0-3.32,1.43-5.48,5-5,.26,0,.47-.26.73-.26a83.13,83.13,0,0,1,19.23-3.07c2.63,0,3.11.22,3.11,3.07a46.41,46.41,0,0,0,.47,6.17,19.57,19.57,0,0,1,0,3.59,4.87,4.87,0,0,0,.69,4,6.87,6.87,0,0,1,.48,4.49,9.9,9.9,0,0,1-1.43,4.54,6.33,6.33,0,0,0-.69,4.27c.69,1.9-1.21,2.38-.95,4,0,1-.26,1.9-.26,2.85v7.86c0,7.61-.47,15.21,1.21,22.81.22,1.9.48,3.81,2.12,5.23.48.48,1.43.74,1.68.48l3.55-4.76c.47-.47.73-1.42,1.42-1.9,1.69-1.21,2.16-3.32,2.64-5.22a7.43,7.43,0,0,1,.95-2.16,10.51,10.51,0,0,0,.69-8.08,3.47,3.47,0,0,1,0-2.12,3.21,3.21,0,0,1,1.21-1.68c.22,0,.95.95,1.42,1.21l1.43-3.33c.22-1.43-.47-.95-.95-.95a42.25,42.25,0,0,1,1.64-4.54,16.33,16.33,0,0,0,.74-8.29,44.52,44.52,0,0,1,.47-8.3c.22-3.32,1.17-6.43,1.64-9.76,1.21-6.18,2.38-12.57,3.33-18.75L480,205A99.11,99.11,0,0,1,484,187.9l2.85-10.5a90.1,90.1,0,0,0,2.59-8.76c.47-2.12,1.9-3.59,2.63-5.49,1.65-3.28,2.6-6.87,4-10.46a14.4,14.4,0,0,1,1.21-3.28l2.38-7.6A3.79,3.79,0,0,0,499,137.75Zm-75.29,97.89h-.26v.26h-.22v.21l-.26.22h-.22v.26h-.25v.26l-.48.47v.22h-.22v.22h-.25v.47h-.22v.26l-.26.26V239l-.22.22v.26l-.26.22v.51h-.21v.7h-.26v.95l-.22.21v1.21l-.26.22v.26l-.21.21v.26h-.26v.26h-.22v.43h-.26v.26h-.21v.22h-.26v.26H418v.26h-.26v.21H417v-.21h-.26v-1.43H417v-1.21h.22v-1l.26-.26v-.69l.21-.26v-.69H418v-.73l.22-.22v-.69h.26V238l.21-.25v-.44l.26-.26v-.73h.22v-.69h.26v-.74h.21v-.69h.26v-.47l.22-.26V233h.26v-.43l.21-.26v-.47h.26v.73l.22.22v1h.26v.95h.22v.47l2.85-.95a.25.25,0,0,0,.26.26Zm48.21,11.66V248a3.67,3.67,0,0,1-.48,1.21v.44h-.21v.47h-.26v.52h-.22v.43l-.26.26v.48h-.22v.95L470,253v1.43l.25.26v1.42H470v.69h-.22v.48h-.26v.52H469V258h-.48a3.08,3.08,0,0,0-.22-.73v-7.82c0-.95,2.38-2.85,3.07-2.38h.26v.26Zm-51.8,4v.73l-.22.22V253h-.26v.74h-.21v1h-.26v.69h-.69v-.69h-.26v-.74H418v-.43a2,2,0,0,1-1,.91h-1.21c0-.48,0-.69.26-.91,0-.73.22-1.21.22-1.68v-1.69h.26v-.47l.21-.22v-.22H417v-.26h.22v-.21h.47v-.26h.48v-.26h.73l.22-.22h.73v.48h-.26v.47l-.21.26v.44h-.26v.47h-.22v.52h-.26v.69Zm-.95,14h-.22v.26H418v-.48h-.26v-1.17H418v-.25h.22v-.26h.26v-.22h.21v-.26l.48-.43h.26v-.26h.21V262l.26-.22C420.56,263.68,419.87,264.37,419.14,265.32Zm45.14-30.85v.22h-.21v.47h-.26v.48h-.22v.47h-.26v.48a1.1,1.1,0,0,0-.69-.48v-.47h.22v-.48h.26v-.26l.21-.21v-.22h.26V234Zm3.11-45.4h-.26v-.26h-.21v-.91h.21v-.47h.26v.21h.22v.26h.26C467.61,188.38,467.39,188.59,467.39,189.07ZM475,208.55v-1.42c0-.26.21-.48.69-.48Zm-58.71,57.5-.22-.26v-.47h.22v-.44h.47v.22H417Zm11.4-67.48v.22h-.21v.52h-.26v-.26h-.48v-.26c0-.22.26-.48.48-.69v.21h.26v.26Zm146.36-49.16c-.21-3.58-1.16-6.91-4.27-9.29a88.37,88.37,0,0,0-7.35-5.22,63.13,63.13,0,0,0-15.68-6c-3.11-.47-6.18-.69-9,.52-1.21.48-2.16,1.64-3.32,1.43s-2.38-1.43-3.59-2.16c-1.17-.48-2.12-1.21-3.07-1.69-3.11-1.64-5-1.64-7.38.48a61.62,61.62,0,0,0-9.51,11.19c-.69,1.16-1.64,2.11-1.64,3.32-.26,2.38-1.42,4.28-2.37,6.18l-.74,1.43c-.47,4.27-2.85,8.08-3.54,12.57-.74,4.79-2.85,9-3.59,13.82-.69,4.5-2.11,8.56-2.59,13-.73,5.44-1.21,11.19-1.68,16.63-.48,4.75.47,9.72-.95,14.52a2.73,2.73,0,0,0,.25,1.38l1.43,7.86L498,250.63a71.91,71.91,0,0,0,7.13,15.42,13.49,13.49,0,0,0,2.64,2.59c1.16.95,2.85,1.95,3.32,3.11a9.9,9.9,0,0,0,6.4,4.5,48.67,48.67,0,0,0,7.86,2.16c2.11.21,4.49.21,6.87.21,1.42,0,2.85-.21,4.53-.21.69-.22,1.9-.22,2.12.21.47.26.26,1.43.26,2.16l.69,1.21a3.82,3.82,0,0,0,1.43-.47c.25,0,.25-.48.25-.74l3.55-6.39c.26-.74.95-1,1.42-1.43,3.11-1.68,4.06-3.58,3.33-7.17-.22-1.16-1.17-2.37-1.17-3.54a7.28,7.28,0,0,1,1.43-3.8l.69-1.43c1.9-1.21,1.9-3.11,2.85-4.53.74-1.43-1-2.85-.69-4s1.64-2.12,1.64-3.8a7.73,7.73,0,0,1,.95-3.33,19.17,19.17,0,0,0,3.59-9.29,25.07,25.07,0,0,1,.95-4.27c.69-2.12,1.42-4,1.9-6.18a55.56,55.56,0,0,0,2.12-9,1.48,1.48,0,0,0,.25-1.38c-.73-2.38.22-4.06.95-6,1-2.38,2.38-4.54,1.17-7.13a2.88,2.88,0,0,1,.26-1.9c.95-2.38.22-5.23,1.9-7.61.22-.21,0-1,0-1.42a15.68,15.68,0,0,1,.22-3.33c.73-4.06,1.42-8.08,2.37-11.88.74-4.06,1.9-8.08,2.64-12.09a19.1,19.1,0,0,0,.47-5.23C574.53,153,574.05,151.05,574.05,149.41ZM547.7,162.67c0,.48-.26.74-.26,1.21.48,4.76-1,9.29-1.64,13.78-.26,3.81-.95,7.61-1.42,11.41a4.32,4.32,0,0,1-.26,1.9c-1.64,1.64-1.17,3.8-1.43,6.18-.21,1.64-1,3.32-.69,5,.22,5.92-1,11.62-1.68,17.32-.22,2.59,0,5.44-1.91,7.6a8.84,8.84,0,0,0,0,2.38c.26,3.11.48,6.18.48,9.5a4.18,4.18,0,0,1-.22,1.65c-1.9,2.85-.95,6.43-.95,9.5v5.49c.22,3.58-2.37,5.48-4.75,7.34-2.16,1.69-7.6-1.17-7.86-4.28-.22-2.33-.48-2.33-3.07-2.11-.73-3.33-1.21-6.66-1.68-10.2a38.11,38.11,0,0,1-.22-5,5.65,5.65,0,0,0-1.21-3.8l-2.12,5.92h-.25a4.81,4.81,0,0,1-.22-1.64A31.2,31.2,0,0,1,518,231.58a15.19,15.19,0,0,0,.26-4.71c0-.26-.48-.74-1.21-1.47l-.69,1.9a2,2,0,0,1-2.64,1.21c-1-.73-.47-1.43-.21-2.12a19.13,19.13,0,0,1,1.16-3.58c1-2.59.26-5.92,2.86-8.08.73-4.75,1.42-9.25.73-14,0-.43-.26-1.17-.26-1.38.95-2.85.74-5.71,2.16-8.56a11.12,11.12,0,0,0,.69-8.33,3,3,0,0,1,.48-2.38c1-2.38,2.85-4.28,2.85-7.13a8.21,8.21,0,0,0,.26-2.37c.21-.7,0-1.69.47-2.16,2.59-2.86,3.07-6.87,5-10a38.43,38.43,0,0,1,3.59-5.92c1.42-1.69,3.54-2.85,5.22-4.28l6.18-4.28c.95-.95,2.12-1.64,1.17-3.58a1.38,1.38,0,0,1,.26-1c.21,0,1,0,1.16.26a5.16,5.16,0,0,1,1.43,1.9c1.21,2.85,1.9,6,.47,8.77a3.44,3.44,0,0,0-.21,2.16A16.93,16.93,0,0,1,547.7,162.67Zm11.41,58.45a23,23,0,0,1,.47-4.23c0-.26.48-.52.95-.73,0,.21.48.73.48,1A4.64,4.64,0,0,1,559.11,221.12Zm-58.24-21.6c0,.26-.47,0-.69,0,0-1.21.22-2.37.22-3.58h.73A4.66,4.66,0,0,1,500.87,199.52ZM499.92,219c0,.47-.69.69-.95,1.21a4.32,4.32,0,0,1-.47-1.47l.73-1.64h.69C499.92,217.84,500.18,218.53,499.92,219Zm5.71,37.54,1.21,3.54C505.15,259.4,504.46,258.23,505.63,256.55Zm44.92-25.66-.26-.26-.47-2.12h.73C551.24,229,551.24,229.24,550.55,230.89Zm1.9-9.51c-.25-.26-1-.47-1-.69l.7-1c.25,0,.47.26.95.52Zm-37.54-17.84.69.26a9.49,9.49,0,0,0-.21,1.21l-.95-.52Zm29.47,25.92a.23.23,0,0,1-.26-.22v-1l.73.52Zm0,3.11a.51.51,0,0,1,.21-1c0,.26.26.47.26.73A.91.91,0,0,1,544.38,232.57Zm55.85,11.15v.21a.91.91,0,0,1-.26.52c0,.43,0,.22.26,0,.22,3.76-2.16,24.93-2.16,27.78.26,3.58,0,7.13.26,10.67a16.54,16.54,0,0,1,.22,4.54c0,1.42.21,3.11.21,4.49a3.35,3.35,0,0,0,2.16,3.84c2.12.91,4,1.86,6.18,2.59a6.05,6.05,0,0,0,2.16.26c3.07,0,5.92-1.68,9-1.68a.86.86,0,0,0,.73-.26c1.17-1.17,2.38-2.38,1.43-4.49a22.57,22.57,0,0,1-1.17-3.8,5.25,5.25,0,0,1-.52-1.91l.95-4.49c0-.95.74-2.37.26-3.11-.95-1.68-.47-2.85-.26-4.28.26-6.17,2.42-29.93,2.85-32.57l.26-5.18h.48a6.26,6.26,0,0,0,2.85-1.21l7.86-5a24.49,24.49,0,0,0,2.59-2.85c.26-.22.26-.7.7-.91l7.38-5.75c1.43-.9,2.85-2.59,4.28-2.59,2.12.22,3.07-1.9,5-1.9.26,0,.47-.73,1-1.43-2.16,0-3.37,2.38-5.48,1.69l1.64-2.64a6.53,6.53,0,0,1-1.43.48.81.81,0,0,1-.69-1.21l4-4.49c.73-.95,1.42-.48,1.68.69a1.74,1.74,0,0,1,.26,1.21l2.59-1.69,2.16-.69c0-.21-.26-.47-.26-.73L657.21,209l-1.64-1.21c1.21-.48,2.16-1.17,3.11-1.64a7.59,7.59,0,0,1,3.07-1,2.74,2.74,0,0,0,3.07-2.6,16.07,16.07,0,0,0-2.85.48c2.37-4.06,7.12-4.54,9.28-8.34a7.28,7.28,0,0,1-2.16.48,11.36,11.36,0,0,1,4.54-4.28,7,7,0,0,0,4-4.54c-.95,0-1.9-.21-2.59-.21,0-.26,0-.48-.26-.48a10,10,0,0,0,2.37-1l.26-.47c-.95-1.43.22-1.43.69-1.69a5.58,5.58,0,0,0,3.37-3.54,7.77,7.77,0,0,1,1.64-2.38l2.86-3.32c1-.95,1.64-1.9,0-3.07-.48-.26-.48-.95-.74-1.68v-.74c-1.64-.43-.91-1.17-.47-1.64a8.12,8.12,0,0,0,2.85-5.23c0-.95.47-2.63,2.37-1.9a.91.91,0,0,1,.52-.26c-1.21-.69,1.17-2.11-.73-2.37-.26,0-.26-.7-.26-.91A9.41,9.41,0,0,0,690,153c-.21-1.9-.21-3.8,1-5.22.26,0,0-.48,0-.74l-2.11,1a15.57,15.57,0,0,1,.69-1.69c1.21-1.42,1.21-3.33.73-5.49a73.07,73.07,0,0,0-2.63-10.41c-2.12-5.7-4-11.19-8.08-16.2-2.38-3.06-5.92-5.44-7.82-9l-.73-.47c-3.33-3.07-7.35-5.23-11.15-7.6-7.39-5-15.94-6.87-24-8.51-4.75-1-9.76-.48-14.51,0a48.94,48.94,0,0,0-15.21,3.28c-7.6,2.63-14.73,5.49-21.38,10.24a54.89,54.89,0,0,0-13.57,14.94c-1.64,2.42-2.59,5.23-3.8,7.87a4.55,4.55,0,0,0,.48,4.53l7.86,9c.69.47,1.42,1.42,2.12,1.42a42.3,42.3,0,0,0,7.86,1.69c2.85.26,4.28-1.9,5.23-4a44.29,44.29,0,0,1,8.55-12.83c4.28-4.32,9.5-7.13,14.73-10,5.44-3.07,11.15-4.49,17.11-5.92,4-.69,8.29-1.64,12.57-.48a17.16,17.16,0,0,0,3.33.22c4.75,0,9.28,1.43,14,3.59a22.18,22.18,0,0,1,11.4,10.45,33.48,33.48,0,0,1,3.07,17.8,42.7,42.7,0,0,1-3.55,14.51,37.41,37.41,0,0,1-3.8,6.87c-1.42,2.64-3.58,5-5,7.65a57,57,0,0,1-7.6,10.89l-3.07,3.32c-2.85,3.11-5.7,6.44-8.55,9.29-3.33,3.33-7.35,5.7-10,9.76l-1,.69c-2.85,2.38-6,4.5-8.81,6.66v-.26a6,6,0,0,1-.95-5.44,16.27,16.27,0,0,0,1.46-4.76c.22-1.21.91-2.59-.26-3.58s-.69-1.43-.25-2.12c1.42-1.68,2.63-3.07,2.63-5.23a73.84,73.84,0,0,0-.26-7.6c-1.64,1.43-1.16,4.49-3.76,5.92a8.09,8.09,0,0,0,.22-1.86l1.42-3.58,1.65-4.28c.26-.69.95-.95.95-1.43,1-3.06,1.68-6.39,2.63-9.24a92.47,92.47,0,0,1,2.85-9.07c1-2.12,1.43-4.24-.73-6.18-.48-.48-.48-1-.91-1.43a23.87,23.87,0,0,0-7.64-7.08c-2.12-1.21-4.24-2.16-6.18-4.06a4.81,4.81,0,0,0-5-.95c-1.69.47-1.69,1.9-1.9,3.32l-.95,5c-.74,2.64-1.21,5.23-1.69,7.86-.95,5.49-1.9,10.72-2.59,15.94-.47,2.34-.47,5-.73,7.35a7.28,7.28,0,0,0-.48,2.16c-.47,1.64-2.37,12.31-2.81,14a1.76,1.76,0,0,0,.44,1c.26-.22.73-.22,1-.7.26-.73.26-1.68.73-2.16,1.17-.95,3.07-11.66,3.54-13a21.05,21.05,0,0,1,1.43-4.06,3.8,3.8,0,0,1,.26,1.68c0,.48-1.9,3.76-1.69,3.76,1.9-.22,1.69,1.21,1.43,2.16l-.69,4.28c-.22.47-.22,1.68,0,1.68,1.9,1.38-1.69,2.12-2.38,3.07-1.21,2.38-3.58,4.49-4,7.13a2.06,2.06,0,0,0,.44,1c1.21.47-2.12,4.06-2.34,5-.26,1.68.22,8.81,0,10.71a64.94,64.94,0,0,1,4.5-8.55c.69,0,2.37-5,3.06-5L604,208.34c-1,1.64-.47,3.06-1.42,4.7-2.85,4.8-3.81,7.65-3.81,9.51l-23.28,8.34a7.87,7.87,0,0,1-2.59,1.16l-10,3.37a3.69,3.69,0,0,0-2.64,1.64,72.7,72.7,0,0,0,7.39.26c1.17,0,2.38.44,3.33.44,1.64,0,2.11.25,1.9,1.9l23.28,1.68,1.9-.73c-.26.73,0,1.68-.26,2.42a.52.52,0,0,0,.52.43c.22,0,.22,0,.43.26,0,1.42,0,2.37.26,1.9.26-.26,1.21-1.69-.26-1.9,0-.95.26-2.38.26-3.55a.86.86,0,0,1,.7-.25A19.56,19.56,0,0,0,600.23,243.72ZM604,271.54c0-1.43,1.69-22.34,1.43-23.33,0-1.17-.22-2.12-.22-3.07a.86.86,0,0,1-.73-.26c.73,4.54-1.64,28.08-2.85,32.1-.44-2.38-.44-4.54-1.39-6.39-1-3.11.95-25.71.95-28.56,0-.95-.26-2.11-.26-3.28a.81.81,0,0,0,.26-.52c.22-.69,1.17-.91,1.86-1.17h.48a.77.77,0,0,0,.26.7v-.91h.69a.79.79,0,0,0,.26.69v2.63h-.26a7.38,7.38,0,0,1-.69-2.16,1.69,1.69,0,0,1-.26,1c-.22.7,0,1,.73,1.43l-1,.22a5.35,5.35,0,0,0,2.38.73,1,1,0,0,1,.21.69c-.21,3.85,2.64.74,2.85,4.32C609.26,249.2,606.37,270.11,604,271.54Zm43.76-77.94v.48l-.26.22v.47h-.25v.48l-.22.21v.26l-.22.22v.26h-.26v.26l-.26.21v.26h-.21v.22h-.22v.21h-.26v.26h-.26v.22h-.43v.26h-.26l-.26.21h-.47v.26h-.48v-.73h.26v-.48h.22v-.43h.26v-.26l.21-.21v-.26h.26v-.26l1.64-1.64h.26v-.22h.26l.22-.26h.22v-.22ZM632,220v1.42h-.22v.48h-.26v.21h-.43v.26h-1.47v-.26h.26v-.21h.22v-.26h.26v-.22h.21v-.26h.26v-.21h.26v-.22h.22v-.26h.21v-.21h.26V220Zm29-17.33-.22.22v.26h-.22v.21h-.26v.22h-1.2a1.63,1.63,0,0,1,.51-.91c.22-.47.69-.47,1.17-.73H661ZM638.94,224l-.26.21h-.47v.22h-.48v.26h-.47v.21h-.7v-.47H637v-.22h.48V224h.21l.26-.26h.22l.26-.22h.21v.22h.26Zm-38.71,15.42a.51.51,0,0,0,.44-.48,37,37,0,0,0-.44,4.07Zm86.71-105.28h-.48V133h-.26v-.48h.48v.95h.26Zm-21.39,68.21.69-.73c-.47,0-.69-.22-1,0l-.47.73C665.08,202.37,665.29,202.63,665.55,202.37Zm-30.19,24.5h-.22v.21h-.48v-.21h-.26c.26-.48.52-.48.74-.74h.22Zm12.39-33.27v-.25H648Z"/></g></g></svg>